<svg xmlns="http://www.w3.org/2000/svg" xmlns:xlink="http://www.w3.org/1999/xlink" width="180.584" height="96.181" viewBox="0 0 180.584 96.181">
  <defs>
    <clipPath id="clip-path">
      <path id="Path_2159" data-name="Path 2159" d="M118.666,119.7c.1.564,1.871.455,1.871.455l2.127.308.712.076.492-.115s1.8-.742,2.588.108.753,1.569.559,1.889-1.452,4.226-1.712,4.794-3.256,5.395-3.256,5.395a6.474,6.474,0,0,1-3.016.9,34.236,34.236,0,0,1-4.031-.459l-1.617-3.213" fill="none"/>
    </clipPath>
    <clipPath id="clip-path-2">
      <path id="Path_2161" data-name="Path 2161" d="M127.639,120.451s-1.359,2.237-1.441,2.257a5.778,5.778,0,0,1-1.327-.312c-.1-.1-.581-2.122-.581-2.122a13.946,13.946,0,0,0-3.259.382,1.887,1.887,0,0,1-1.244.164s-1.408-2.549-1.1-2.714,5.618-.421,5.618-.421" fill="none"/>
    </clipPath>
  </defs>
  <g id="Group_180" data-name="Group 180" transform="translate(-49.804 -40.002)">
    <g id="Group_174" data-name="Group 174">
      <path id="Path_2146" data-name="Path 2146" d="M113.2,52.958l-5.082-9.327v9.347q0,.876.618,1.066a4.33,4.33,0,0,0,1.275.189c.106,0,.16.083.16.249s-.054.249-.16.249h-4.464c-.106,0-.159-.082-.159-.249s.053-.249.159-.249a3.883,3.883,0,0,0,1.236-.2q.6-.2.6-1.056V43.093a.973.973,0,0,0-.6-1.047,3.731,3.731,0,0,0-1.236-.209q-.159,0-.159-.249t.159-.249h2.81a1.139,1.139,0,0,1,1.056.578l6.2,11.14a2.366,2.366,0,0,0,2.232,1.176c.107.014.16.1.16.259s-.053.239-.16.239H112.1c-.12,0-.18-.079-.18-.239s.06-.245.18-.259a1.962,1.962,0,0,0,1.026-.3Q113.559,53.655,113.2,52.958Zm-3.189,5.261a4.15,4.15,0,0,0-1.275.2q-.618.2-.618,1.056v9.9q0,.858.618,1.056a4.12,4.12,0,0,0,1.275.2c.106,0,.16.076.16.229s-.054.229-.16.229h-4.464c-.106,0-.159-.076-.159-.229s.053-.229.159-.229a3.731,3.731,0,0,0,1.236-.209.973.973,0,0,0,.6-1.047v-9.9a.971.971,0,0,0-.6-1.046,3.731,3.731,0,0,0-1.236-.209q-.159,0-.159-.249t.159-.249h4.464c.106,0,.16.083.16.249S110.117,58.219,110.011,58.219Zm8.331,1.255,5.082,9.367V59.474q0-.856-.628-1.056a4.188,4.188,0,0,0-1.266-.2c-.119,0-.179-.083-.179-.249s.06-.249.179-.249h4.464c.107,0,.16.083.16.249s-.053.249-.16.249a3.7,3.7,0,0,0-1.245.209q-.588.21-.588,1.046v9.9q0,.837.588,1.047a3.7,3.7,0,0,0,1.245.209c.107,0,.16.076.16.229s-.053.229-.16.229h-2.81a1.094,1.094,0,0,1-1.056-.558l-6.2-11.14a2.522,2.522,0,0,0-2.232-1.176c-.119,0-.179-.083-.179-.249s.06-.249.179-.249h5.74c.106,0,.162.083.169.249s-.043.249-.149.249a2.488,2.488,0,0,0-1.047.3Q117.943,58.778,118.342,59.474Zm3.188-5.241a4.37,4.37,0,0,0,1.266-.189q.627-.189.628-1.066V43.093q0-.856-.628-1.057a4.188,4.188,0,0,0-1.266-.2c-.119,0-.179-.083-.179-.249s.06-.249.179-.249h4.464c.107,0,.16.083.16.249s-.053.249-.16.249a3.7,3.7,0,0,0-1.245.209q-.588.21-.588,1.047v9.885q0,.856.588,1.056a3.848,3.848,0,0,0,1.245.2c.107,0,.16.083.16.249s-.053.249-.16.249H121.53c-.119,0-.179-.079-.179-.239S121.411,54.247,121.53,54.233Z" fill="#231f20"/>
      <path id="Path_2147" data-name="Path 2147" d="M131.734,43.093v9.885q0,.9.648,1.076a4.888,4.888,0,0,0,1.3.179H135.6a2.387,2.387,0,0,0,2.013-1.206,5.08,5.08,0,0,0,.917-1.923c0-.079.073-.126.219-.139a.375.375,0,0,1,.3.06.3.3,0,0,1,.04.119,11.739,11.739,0,0,0-.419,3.448c0,.093-.052.139-.159.139H127.888c-.107,0-.16-.082-.16-.249s.053-.249.16-.249a3.872,3.872,0,0,0,1.235-.2q.6-.2.6-1.056V43.093a.972.972,0,0,0-.6-1.047,3.721,3.721,0,0,0-1.235-.209c-.107,0-.16-.083-.16-.249s.053-.249.16-.249h15.066a1.16,1.16,0,0,0,1.256-1.056c.079-.346.246-.372.5-.08a.192.192,0,0,1,.04.139l-1.256,6.238c-.027.107-.129.157-.309.15s-.256-.076-.229-.209a9.169,9.169,0,0,0-.08-2.781q-.258-1.923-1.873-1.923h-7.234a5.292,5.292,0,0,0-1.345.18Q131.733,42.176,131.734,43.093Zm14.19,29c.026.132-.053.2-.24.2s-.285-.047-.3-.14q-.16-.837-.658-.946a5.992,5.992,0,0,0-1.256-.11H127.888c-.107,0-.16-.076-.16-.229s.053-.229.16-.229a3.721,3.721,0,0,0,1.235-.209.972.972,0,0,0,.6-1.047v-9.9a.97.97,0,0,0-.6-1.046,3.721,3.721,0,0,0-1.235-.209c-.107,0-.16-.083-.16-.249s.053-.249.16-.249H138.51c.107,0,.159.046.159.139a14.161,14.161,0,0,0,.419,3.448.163.163,0,0,1-.04.12.325.325,0,0,1-.3.079q-.219-.02-.219-.159a5.272,5.272,0,0,0-.967-1.923,2.472,2.472,0,0,0-2.062-1.206h-1.734a5.335,5.335,0,0,0-1.345.179q-.688.18-.688,1.076v9.9q0,.9.648,1.076a4.85,4.85,0,0,0,1.3.18h8.43a1.816,1.816,0,0,0,1.923-1.684,7.743,7.743,0,0,0,.19-2.521c-.027-.04-.013-.086.039-.14a.365.365,0,0,1,.26-.05c.132.007.206.05.219.13Z" fill="#231f20"/>
      <path id="Path_2148" data-name="Path 2148" d="M151.922,43.432l2.651,9.426a1.465,1.465,0,0,0,.887,1.046,3.525,3.525,0,0,0,1.265.329c.107.014.157.1.15.259s-.063.239-.17.239h-5.719c-.12,0-.18-.079-.18-.239s.06-.245.18-.259a1.547,1.547,0,0,0,1.215-.5,1.244,1.244,0,0,0,.2-1.1l-2.551-9.128a1.871,1.871,0,0,0-1.067-1.355,4.7,4.7,0,0,0-1.345-.339c-.106,0-.159-.079-.159-.239s.053-.239.159-.239h5.72c.106,0,.162.08.169.239s-.043.239-.149.239a1.438,1.438,0,0,0-1.037.5A1.277,1.277,0,0,0,151.922,43.432Zm11.44,14.289h2.272q.159,0,.159.249t-.159.249a1.226,1.226,0,0,0-.877.5,1.21,1.21,0,0,0-.22,1.1l1.356,5.1q.138.539.3,1.256t.279,1.255q.119-.539.279-1.275t.318-1.276l1.216-5.062a1.276,1.276,0,0,0-.219-1.1,1.229,1.229,0,0,0-.957-.5q-.159,0-.159-.249c0-.166.06-.249.179-.249h4.126q.159,0,.159.249t-.159.249a2.988,2.988,0,0,0-1.316.309,1.482,1.482,0,0,0-.817,1.026l-3.228,11.878c0,.08-.047.12-.14.12a.155.155,0,0,1-.159-.12l-2.651-9.865q-.12-.419-.458-1.525t-.758-1.106q-.438,0-.767,1.106t-.448,1.525l-2.651,9.865a.166.166,0,0,1-.319,0l-3.069-11.38a2.041,2.041,0,0,0-1.176-1.5,4.716,4.716,0,0,0-1.435-.329c-.119,0-.179-.083-.179-.249s.06-.249.179-.249h5.72c.107,0,.16.083.16.249s-.047.249-.14.249q-1.514.159-1.1,1.594l1.355,5.1q.12.539.279,1.256c.107.478.2.9.279,1.255q.12-.539.279-1.275t.319-1.276l1.2-4.484a1.909,1.909,0,0,0-.18-1.674,1.287,1.287,0,0,0-.976-.5c-.107,0-.16-.083-.16-.249s.06-.249.18-.249h4.285Zm-3.368-14.289,1.873,6.775a18.872,18.872,0,0,1,.518,2.452,19.18,19.18,0,0,1,.518-2.452l1.894-6.775a1.278,1.278,0,0,0-.22-1.117,1.2,1.2,0,0,0-.9-.478q-.159,0-.159-.249c0-.166.06-.249.179-.249h4.126c.106,0,.159.08.159.239s-.053.239-.159.239a2.113,2.113,0,0,0-2.272,1.634l-2.571,9.188a1.179,1.179,0,0,0,.219,1.1,1.04,1.04,0,0,0,.748.458,4.357,4.357,0,0,0,.807.04c.119,0,.176.083.169.249s-.063.249-.169.249h-5.72c-.12,0-.179-.079-.179-.239s.059-.245.179-.259a1.464,1.464,0,0,0,1.216-.5,1.243,1.243,0,0,0,.2-1.1l-2.511-9.088a2,2,0,0,0-1.106-1.315,4.277,4.277,0,0,0-1.345-.4q-.18,0-.18-.249t.18-.249h5.719c.12,0,.18.08.18.239s-.06.239-.18.239a1.25,1.25,0,0,0-1.016.5A1.226,1.226,0,0,0,159.994,43.432Zm8.21,10.8a3.36,3.36,0,0,0,1.146-.279,1.45,1.45,0,0,0,.847-1l2.651-9.526a1.277,1.277,0,0,0-.219-1.117,1.2,1.2,0,0,0-.9-.478c-.107,0-.16-.083-.16-.249s.06-.249.18-.249h4.125c.107,0,.16.08.16.239s-.053.239-.16.239a4.43,4.43,0,0,0-1.255.269,1.792,1.792,0,0,0-1.017,1.385l-2.551,9.168a1.072,1.072,0,0,0,.219,1.116,1.537,1.537,0,0,0,1.057.478c.106.014.159.1.159.259s-.053.239-.159.239H168.2c-.119,0-.179-.079-.179-.239S168.085,54.247,168.2,54.233Z" fill="#231f20"/>
      <path id="Path_2149" data-name="Path 2149" d="M61.424,81.082v9.885q0,.9.658,1.076a5,5,0,0,0,1.315.179c.12,0,.179.083.179.249s-.059.249-.179.249H57.6c-.12,0-.18-.082-.18-.249s.06-.249.18-.249a3.814,3.814,0,0,0,1.215-.2q.6-.2.6-1.056V81.082q0-.9-.657-1.086a4.749,4.749,0,0,0-1.316-.19H53.572q-1.635,0-1.893,1.924a9.163,9.163,0,0,0-.08,2.78c.026.133-.053.2-.239.209s-.286-.043-.3-.15l-1.256-6.237c-.013-.12.067-.183.24-.19s.272.037.3.13A1.16,1.16,0,0,0,51.6,79.328H69.336a1.159,1.159,0,0,0,1.255-1.056c.014-.093.113-.136.3-.13s.266.07.24.19l-1.256,6.237q-.14.539-.5.08a.191.191,0,0,1-.04-.139,9.163,9.163,0,0,0-.08-2.78Q69,79.807,67.383,79.806H63.477a5.368,5.368,0,0,0-1.365.18Q61.424,80.165,61.424,81.082Zm2.232,27.542c.106,0,.16.077.16.229s-.054.229-.16.229H57.6c-.12,0-.18-.076-.18-.229s.06-.229.18-.229a3.666,3.666,0,0,0,1.215-.209.972.972,0,0,0,.6-1.047v-9.9a.972.972,0,0,0-.6-1.047,3.666,3.666,0,0,0-1.215-.209q-.18,0-.18-.249t.18-.249h5.8c.106,0,.163.083.169.249s-.049.249-.169.249a4.74,4.74,0,0,0-1.315.189q-.658.19-.658,1.067v9.9q0,.957.767,1.106A7.646,7.646,0,0,0,63.656,108.624Z" fill="#231f20"/>
      <path id="Path_2150" data-name="Path 2150" d="M72.266,95.71h5.918c.107,0,.163.083.17.249s-.05.249-.17.249q-.418,0-.677.02a1.1,1.1,0,0,0-.618.379,1.154,1.154,0,0,0-.339.916,21.771,21.771,0,0,0,1.8,8.51,5.022,5.022,0,0,0,9.287,0,22.27,22.27,0,0,0,1.8-8.51.982.982,0,0,0-.478-1.036,2.754,2.754,0,0,0-1.156-.279c-.119,0-.176-.083-.169-.249s.07-.249.189-.249h5.78c.092,0,.142.083.149.249s-.05.249-.169.249a4.881,4.881,0,0,0-1.206.14c-.366.093-.581.418-.648.976a19.31,19.31,0,0,1-3.069,8.8q-2.432,3.518-5.66,3.517t-5.679-3.517a19,19,0,0,1-3.07-8.8q-.119-.917-.717-1.016a7.7,7.7,0,0,0-1.275-.1c-.107,0-.16-.083-.16-.249S72.159,95.71,72.266,95.71Zm3.886-14.628v9.885q0,.877.627,1.066a4.439,4.439,0,0,0,1.286.189q.159,0,.159.249c0,.167-.059.249-.179.249h-5.74c-.106,0-.159-.082-.159-.249s.053-.249.159-.249a3.883,3.883,0,0,0,1.236-.2q.6-.2.6-1.056V81.082a.97.97,0,0,0-.6-1.046,3.707,3.707,0,0,0-1.236-.21c-.106,0-.159-.082-.159-.249s.053-.249.159-.249h5.74c.12,0,.179.08.179.239s-.053.239-.159.239a4.725,4.725,0,0,0-1.286.22Q76.152,80.225,76.152,81.082Zm15.4,0v9.885q0,.877.648,1.066a4.634,4.634,0,0,0,1.305.189q.159,0,.159.249c0,.167-.053.249-.159.249H87.731c-.12,0-.183-.082-.19-.249s.05-.249.17-.249a3.872,3.872,0,0,0,1.235-.2q.6-.2.6-1.056V81.082a.97.97,0,0,0-.6-1.046,3.7,3.7,0,0,0-1.235-.21c-.12,0-.177-.082-.17-.249s.07-.249.19-.249H93.45c.106,0,.16.08.16.239s-.054.239-.16.239a4.6,4.6,0,0,0-1.275.22Q91.557,80.225,91.557,81.082Z" fill="#231f20"/>
      <path id="Path_2151" data-name="Path 2151" d="M104.172,79.328a13.452,13.452,0,0,1,5.839,1.266q2.671,1.266,2.671,5.43,0,3.966-2.551,5.331a11.794,11.794,0,0,1-5.66,1.365H95.483c-.107,0-.159-.082-.159-.249s.052-.249.159-.249a3.976,3.976,0,0,0,1.246-.2q.608-.2.607-1.056V81.082a.97.97,0,0,0-.6-1.046,3.7,3.7,0,0,0-1.235-.21c-.107,0-.16-.082-.16-.249s.053-.249.16-.249h8.669Zm3.209,16.88a5.909,5.909,0,0,0-1.565.289q-.867.269-.329.967l6.437,8.689a5.451,5.451,0,0,0,4.5,2.471c.12,0,.173.077.16.229s-.073.229-.179.229h-2.352a4.4,4.4,0,0,1-3.767-1.714l-7.334-9.9a2.6,2.6,0,0,0-1.973-1.256h.1a3.405,3.405,0,0,0-1.166.239.969.969,0,0,0-.548,1.017v9.9q0,.858.628,1.057a4.216,4.216,0,0,0,1.285.2c.107,0,.16.077.16.229s-.053.229-.16.229H95.543c-.12,0-.18-.076-.18-.229s.06-.229.18-.229a3.666,3.666,0,0,0,1.215-.209.972.972,0,0,0,.6-1.047v-9.9a.972.972,0,0,0-.6-1.047,3.666,3.666,0,0,0-1.215-.209q-.18,0-.18-.249t.18-.249h11.838q.159,0,.159.249T107.381,96.208Zm-8.032-5.241q0,.917.678,1.086a5.483,5.483,0,0,0,1.335.169h3.149a7.545,7.545,0,0,0,4.613-1.176q1.545-1.174,1.545-5.022,0-4.084-1.674-5.151a9.012,9.012,0,0,0-4.823-1.067H101.3A4.635,4.635,0,0,0,100,80q-.648.189-.648,1.086Z" fill="#231f20"/>
      <path id="Path_2152" data-name="Path 2152" d="M128.326,78.77q3.229,0,5.66,3.538a19.42,19.42,0,0,1,3.069,8.8c.067.625.3.97.708,1.037a6.694,6.694,0,0,0,1.285.079c.107,0,.159.083.159.249s-.052.249-.159.249h-6.2c-.119,0-.179-.082-.179-.249s.06-.249.179-.249a4.139,4.139,0,0,0,1.295-.209q.639-.21.6-1.106a21.929,21.929,0,0,0-1.853-8.44q-1.573-3.2-4.564-3.2-3.03,0-4.6,3.2a21.7,21.7,0,0,0-1.834,8.44,1.214,1.214,0,0,0,.339.937,1.128,1.128,0,0,0,.727.378,8.124,8.124,0,0,0,.827,0c.12,0,.177.083.17.249s-.063.249-.17.249h-6.2c-.106,0-.159-.082-.159-.249s.053-.249.159-.249a6.565,6.565,0,0,0,1.276-.079c.4-.067.638-.412.717-1.037a19.12,19.12,0,0,1,3.069-8.8Q125.1,78.769,128.326,78.77ZM117.584,95.71h6.2c.107,0,.16.083.16.249s-.053.249-.16.249a4.3,4.3,0,0,0-1.325.209q-.646.21-.588,1.106a21.771,21.771,0,0,0,1.8,8.51,5.01,5.01,0,0,0,9.117.339l-2.013-2.69a5.432,5.432,0,0,0-4.484-2.472c-.119,0-.176-.079-.169-.239s.063-.239.169-.239h2.372a4.446,4.446,0,0,1,3.767,1.734l1.295,1.754a27.259,27.259,0,0,0,1.036-6.7q.04-.9-.6-1.106a4.2,4.2,0,0,0-1.315-.209c-.119,0-.179-.083-.179-.249s.06-.249.179-.249h6.2c.107,0,.159.083.159.249s-.052.249-.159.249a7.878,7.878,0,0,0-1.285.1c-.406.066-.641.4-.708,1.016a20.516,20.516,0,0,1-2.531,7.992l.638.837a5.4,5.4,0,0,0,4.484,2.471c.12,0,.172.077.159.229s-.072.229-.179.229h-2.352a4.4,4.4,0,0,1-3.766-1.714l-.219-.318a6.49,6.49,0,0,1-4.963,2.59q-3.228,0-5.68-3.517a19.013,19.013,0,0,1-3.069-8.8c-.079-.611-.319-.95-.717-1.016a7.705,7.705,0,0,0-1.276-.1q-.159,0-.159-.249T117.584,95.71Z" fill="#231f20"/>
      <path id="Path_2153" data-name="Path 2153" d="M141.061,95.71h5.919c.106,0,.162.083.169.249s-.05.249-.169.249q-.418,0-.678.02a1.109,1.109,0,0,0-.618.379,1.153,1.153,0,0,0-.338.916,21.773,21.773,0,0,0,1.8,8.51,5.022,5.022,0,0,0,9.287,0,22.249,22.249,0,0,0,1.8-8.51.982.982,0,0,0-.478-1.036,2.754,2.754,0,0,0-1.156-.279c-.12,0-.177-.083-.17-.249s.07-.249.19-.249H162.4c.093,0,.143.083.149.249s-.049.249-.169.249a4.892,4.892,0,0,0-1.206.14q-.548.14-.647.976a19.321,19.321,0,0,1-3.069,8.8q-2.433,3.518-5.66,3.517t-5.68-3.517a19,19,0,0,1-3.069-8.8q-.12-.917-.718-1.016a7.693,7.693,0,0,0-1.275-.1c-.107,0-.16-.083-.16-.249S140.954,95.71,141.061,95.71Zm3.886-14.628v9.885q0,.877.628,1.066a4.432,4.432,0,0,0,1.285.189c.107,0,.16.083.16.249s-.06.249-.18.249H141.1c-.107,0-.16-.082-.16-.249s.053-.249.16-.249a3.872,3.872,0,0,0,1.235-.2q.6-.2.6-1.056V81.082a.97.97,0,0,0-.6-1.046,3.7,3.7,0,0,0-1.235-.21c-.107,0-.16-.082-.16-.249s.053-.249.16-.249h5.739c.12,0,.18.08.18.239s-.053.239-.16.239a4.718,4.718,0,0,0-1.285.22Q144.947,80.225,144.947,81.082Zm15.4,0v9.885q0,.877.648,1.066a4.639,4.639,0,0,0,1.3.189c.107,0,.16.083.16.249s-.053.249-.16.249h-5.779c-.12,0-.183-.082-.189-.249s.049-.249.169-.249a3.883,3.883,0,0,0,1.236-.2q.6-.2.6-1.056V81.082a.97.97,0,0,0-.6-1.046,3.707,3.707,0,0,0-1.236-.21c-.12,0-.176-.082-.169-.249s.069-.249.189-.249h5.72c.106,0,.159.08.159.239s-.053.239-.159.239a4.609,4.609,0,0,0-1.276.22Q160.352,80.225,160.352,81.082Z" fill="#231f20"/>
      <path id="Path_2154" data-name="Path 2154" d="M174.522,78.77q3.228,0,5.66,3.538a19.433,19.433,0,0,1,3.069,8.8q.1.938.707,1.037a6.705,6.705,0,0,0,1.286.079q.159,0,.159.249c0,.167-.053.249-.159.249h-6.2c-.12,0-.18-.082-.18-.249s.06-.249.18-.249a7.941,7.941,0,0,0,.817,0,1.136,1.136,0,0,0,.737-.378,1.322,1.322,0,0,0,.339-.937,21.929,21.929,0,0,0-1.853-8.44q-1.575-3.2-4.564-3.2-3.03,0-4.6,3.2a21.7,21.7,0,0,0-1.833,8.44,1.21,1.21,0,0,0,.339.937,1.128,1.128,0,0,0,.727.378,8.123,8.123,0,0,0,.827,0c.12,0,.176.083.169.249s-.062.249-.169.249h-6.2c-.106,0-.159-.082-.159-.249s.053-.249.159-.249a6.565,6.565,0,0,0,1.276-.079q.6-.1.717-1.037a19.12,19.12,0,0,1,3.069-8.8Q171.293,78.769,174.522,78.77ZM163.78,95.71h6.2c.107,0,.163.083.169.249s-.049.249-.169.249q-.459,0-.837.02a1.138,1.138,0,0,0-.737.379,1.15,1.15,0,0,0-.339.916,21.773,21.773,0,0,0,1.8,8.51,5.022,5.022,0,0,0,9.287,0,22.249,22.249,0,0,0,1.8-8.51,1.255,1.255,0,0,0-.339-.916,1.138,1.138,0,0,0-.737-.379q-.378-.02-.837-.02-.18,0-.18-.249t.18-.249h6.2q.159,0,.159.249t-.159.249a7.891,7.891,0,0,0-1.286.1q-.607.1-.707,1.016a19.322,19.322,0,0,1-3.069,8.8q-2.432,3.518-5.66,3.517t-5.68-3.517a19.013,19.013,0,0,1-3.069-8.8q-.12-.917-.717-1.016a7.705,7.705,0,0,0-1.276-.1q-.159,0-.159-.249T163.78,95.71Z" fill="#231f20"/>
      <path id="Path_2155" data-name="Path 2155" d="M190.047,81.082v9.885q0,.877.618,1.066a4.33,4.33,0,0,0,1.275.189c.107,0,.159.083.159.249s-.052.249-.159.249H186.2c-.106,0-.159-.082-.159-.249s.053-.249.159-.249a3.878,3.878,0,0,0,1.236-.2q.6-.2.6-1.056V81.082a.97.97,0,0,0-.6-1.046,3.7,3.7,0,0,0-1.236-.21c-.106,0-.159-.082-.159-.249s.053-.249.159-.249h5.74c.107,0,.159.08.159.239s-.052.239-.159.239a4.6,4.6,0,0,0-1.275.22Q190.047,80.225,190.047,81.082Zm1.893,15.126a4.15,4.15,0,0,0-1.275.2q-.618.2-.618,1.057v9.9q0,.858.618,1.057a4.12,4.12,0,0,0,1.275.2c.107,0,.159.077.159.229s-.052.229-.159.229H186.2c-.106,0-.159-.076-.159-.229s.053-.229.159-.229a3.727,3.727,0,0,0,1.236-.209.972.972,0,0,0,.6-1.047v-9.9a.972.972,0,0,0-.6-1.047,3.727,3.727,0,0,0-1.236-.209q-.159,0-.159-.249t.159-.249h5.74c.107,0,.159.083.159.249S192.047,96.208,191.94,96.208Z" fill="#231f20"/>
      <path id="Path_2156" data-name="Path 2156" d="M210.614,84.55c0,.119-.093.179-.279.179s-.3-.04-.339-.12a10.342,10.342,0,0,0-2.731-3.517,6.5,6.5,0,0,0-4.165-1.266,9.075,9.075,0,0,0-5.749,1.854,5.488,5.488,0,0,0-2.382,4.444q0,4.623,3.866,5.361a38.342,38.342,0,0,0,7.155.737c.107,0,.159.083.159.249s-.052.249-.159.249H193.614c-.12,0-.179-.079-.179-.239s.053-.245.159-.259c.319-.04.435-.2.349-.488s-.183-.581-.289-.887A8.69,8.69,0,0,1,193.2,87.9a7.8,7.8,0,0,1,2.859-6.049,10.248,10.248,0,0,1,7.025-2.521,7.332,7.332,0,0,1,3.966.917,10.469,10.469,0,0,0,1.8.907q1.185.487,1.186-1.126V78.969c0-.119.1-.179.289-.179s.289.06.289.179ZM193.235,103.9c0-.106.087-.163.259-.17s.279.024.319.09a10.249,10.249,0,0,0,2.721,3.527,6.559,6.559,0,0,0,4.2,1.256,9.113,9.113,0,0,0,5.729-1.833,5.472,5.472,0,0,0,2.382-4.465q0-4.6-3.866-5.351a37.81,37.81,0,0,0-7.135-.747c-.12,0-.179-.083-.179-.249s.059-.249.179-.249H210.2c.107,0,.16.083.16.249s-.047.249-.14.249q-.5.06-.369.5t.309.877a8.806,8.806,0,0,1,.459,2.95,7.745,7.745,0,0,1-2.87,6.048,10.3,10.3,0,0,1-7.015,2.5,7.466,7.466,0,0,1-3.966-.877q-2.989-1.913-2.99,1.256c0,.093-.079.146-.239.159s-.259-.007-.3-.059a.138.138,0,0,1-.039-.1Z" fill="#231f20"/>
      <path id="Path_2157" data-name="Path 2157" d="M216.194,81.082v9.885q0,.9.647,1.076a4.9,4.9,0,0,0,1.306.179h1.913a2.385,2.385,0,0,0,2.013-1.205,5.09,5.09,0,0,0,.917-1.924c0-.079.072-.126.219-.139a.376.376,0,0,1,.3.06.3.3,0,0,1,.04.119,11.706,11.706,0,0,0-.419,3.448c0,.093-.053.139-.159.139H212.347c-.106,0-.159-.082-.159-.249s.053-.249.159-.249a3.878,3.878,0,0,0,1.236-.2q.6-.2.6-1.056V81.082a.97.97,0,0,0-.6-1.046,3.7,3.7,0,0,0-1.236-.21c-.106,0-.159-.082-.159-.249s.053-.249.159-.249h15.067a1.159,1.159,0,0,0,1.255-1.056q.12-.518.5-.08a.2.2,0,0,1,.039.14l-1.255,6.237q-.04.161-.309.15c-.179-.007-.256-.076-.229-.209a9.2,9.2,0,0,0-.08-2.78q-.258-1.923-1.873-1.924h-7.234a5.306,5.306,0,0,0-1.346.18Q216.194,80.165,216.194,81.082Zm14.189,29c.027.132-.053.2-.239.2s-.286-.047-.3-.139c-.106-.558-.326-.874-.657-.947a5.992,5.992,0,0,0-1.256-.11H212.347c-.106,0-.159-.076-.159-.229s.053-.229.159-.229a3.727,3.727,0,0,0,1.236-.209.972.972,0,0,0,.6-1.047v-9.9a.972.972,0,0,0-.6-1.047,3.727,3.727,0,0,0-1.236-.209q-.159,0-.159-.249t.159-.249H222.97c.106,0,.159.047.159.139a14.16,14.16,0,0,0,.419,3.448.163.163,0,0,1-.04.12.326.326,0,0,1-.3.079c-.147-.013-.219-.066-.219-.159a5.272,5.272,0,0,0-.967-1.923,2.472,2.472,0,0,0-2.063-1.206h-1.733a5.349,5.349,0,0,0-1.346.179q-.687.18-.687,1.077v9.9q0,.9.647,1.077a4.9,4.9,0,0,0,1.306.179h8.43a1.816,1.816,0,0,0,1.923-1.684,7.737,7.737,0,0,0,.189-2.521c-.027-.04-.013-.086.04-.14a.365.365,0,0,1,.259-.049q.2.009.219.129Z" fill="#231f20"/>
    </g>
    <g id="Group_179" data-name="Group 179">
      <g id="Group_176" data-name="Group 176">
        <g id="Group_175" data-name="Group 175" clip-path="url(#clip-path)">
          <path id="Path_2158" data-name="Path 2158" d="M125.856,120.1l-1.707,5.7A9.371,9.371,0,0,1,121.8,130.1a3.7,3.7,0,0,1-2.881,1.139,2.4,2.4,0,0,1-1.335-.584,1.206,1.206,0,0,1-.535-1.016q.067-.624.956-1.06a1.643,1.643,0,0,0,.313,1.248,1.612,1.612,0,0,0,1.146.574,1.859,1.859,0,0,0,1.765-.717,10.762,10.762,0,0,0,1.388-3.26l1.881-6.276a7.741,7.741,0,0,1-1.13.062q-.791-.084-.77-1.15a1.25,1.25,0,0,0,.637.233,8.589,8.589,0,0,0,1.637-.077l.613-.074a6.532,6.532,0,0,1,1.4-.029,1.325,1.325,0,0,1,.932.391,1.947,1.947,0,0,1,.273,1.126,2.192,2.192,0,0,0-1.253-.534A6.089,6.089,0,0,0,125.856,120.1Z" fill="#231f20"/>
        </g>
      </g>
      <g id="Group_178" data-name="Group 178">
        <g id="Group_177" data-name="Group 177" clip-path="url(#clip-path-2)">
          <path id="Path_2160" data-name="Path 2160" d="M123.676,120.288l-1.707,5.7a9.368,9.368,0,0,1-2.346,4.314,3.7,3.7,0,0,1-2.88,1.139,2.409,2.409,0,0,1-1.336-.585,1.2,1.2,0,0,1-.534-1.016q.066-.624.956-1.059a1.639,1.639,0,0,0,.313,1.248,1.612,1.612,0,0,0,1.146.574,1.86,1.86,0,0,0,1.765-.718,10.758,10.758,0,0,0,1.387-3.259l1.881-6.277a7.8,7.8,0,0,1-1.13.063q-.789-.084-.769-1.151a1.241,1.241,0,0,0,.636.234,8.6,8.6,0,0,0,1.638-.077l.613-.074a6.538,6.538,0,0,1,1.4-.03,1.327,1.327,0,0,1,.932.392,1.941,1.941,0,0,1,.273,1.125,2.2,2.2,0,0,0-1.254-.533A6.178,6.178,0,0,0,123.676,120.288Z" fill="#231f20"/>
        </g>
      </g>
      <path id="Path_2162" data-name="Path 2162" d="M123.793,130.576a1.666,1.666,0,0,1-.3-1.011,3.213,3.213,0,0,1,.215-1.065,5.046,5.046,0,0,1,.48-.888,6.3,6.3,0,0,1,.621-.774,6.376,6.376,0,0,1,.719-.66c.254-.2.508-.381.761-.546a4.256,4.256,0,0,1,.679-.334,3.277,3.277,0,0,1,.811-.211,1.847,1.847,0,0,1,.769.053.922.922,0,0,1,.554.457.839.839,0,0,1,.083.669,3.137,3.137,0,0,1-.265.651,4.422,4.422,0,0,1-.926,1.1,4.527,4.527,0,0,1-1.192.747,3.618,3.618,0,0,1-.976.247,1.926,1.926,0,0,1-.959-.141,2.381,2.381,0,0,0-.158.378.925.925,0,0,0-.041.361.7.7,0,0,0,.116.325.661.661,0,0,0,.331.238,1.315,1.315,0,0,0,.959-.053,5.3,5.3,0,0,0,1.084-.58,9.5,9.5,0,0,0,.993-.784q.454-.413.7-.659.115-.123.24-.273a.807.807,0,0,1,.273-.22.472.472,0,0,1,.281-.018.5.5,0,0,1,.232.141.6.6,0,0,1,.14.238.366.366,0,0,1-.008.255.82.82,0,0,1-.19.308l-.257.272q-.629.635-.967.924c-.227.194-.433.361-.621.5a6.447,6.447,0,0,1-.984.607,4.427,4.427,0,0,1-1.158.4,2.7,2.7,0,0,1-1.134-.009A1.491,1.491,0,0,1,123.793,130.576Zm2.135-2.6a2.563,2.563,0,0,0,1.124-.492,4.7,4.7,0,0,0,.861-.827,1.027,1.027,0,0,0,.19-.335c.039-.117.03-.193-.025-.228a3.32,3.32,0,0,0-.81.352,6.3,6.3,0,0,0-.728.51,5.929,5.929,0,0,0-1.042,1.02A1.291,1.291,0,0,0,125.928,127.972Z" fill="#231f20"/>
      <path id="Path_2163" data-name="Path 2163" d="M130.792,130.524a6.976,6.976,0,0,1-.654.475,1.641,1.641,0,0,1-.736.264,1.3,1.3,0,0,1-.695-.106.989.989,0,0,1-.43-.4,1.27,1.27,0,0,1-.141-.731,3.025,3.025,0,0,1,.174-.73,6.943,6.943,0,0,1,.521-1.02,11.352,11.352,0,0,1,.7-1.021q.381-.492.778-.941c.264-.3.513-.572.744-.819.067-.058.141-.129.224-.21a.383.383,0,0,1,.273-.124.491.491,0,0,1,.446.238,1.211,1.211,0,0,1,.183.484.378.378,0,0,1-.042.237,1.1,1.1,0,0,1-.141.185q-.247.282-.5.537a6.587,6.587,0,0,0-.48.554q-.431.544-.844,1.064a6.339,6.339,0,0,0-.711,1.118,3.111,3.111,0,0,0-.165.334.439.439,0,0,0-.05.238c.011.052.052.07.124.052a1.033,1.033,0,0,0,.339-.22,6.362,6.362,0,0,0,1.291-1.249q.561-.722,1.108-1.39c.067-.082.174-.226.323-.431s.308-.416.48-.634.336-.407.5-.572a.857.857,0,0,1,.356-.263.523.523,0,0,1,.463.167.886.886,0,0,1,.248.448.446.446,0,0,1-.083.388q-.462.651-.967,1.231a15.18,15.18,0,0,0-.952,1.214,4.385,4.385,0,0,0-.306.493,3.163,3.163,0,0,0-.248.554c-.05.159-.033.253.05.282s.284-.079.6-.326c.11-.081.223-.17.339-.264s.245-.211.389-.351.3-.3.479-.493.386-.417.629-.686a1.562,1.562,0,0,1-.058-.572,2.1,2.1,0,0,1,.124-.555,2.987,2.987,0,0,1,.372-.756,3.842,3.842,0,0,1,.538-.633,1.914,1.914,0,0,1,.48-.317,1.11,1.11,0,0,1,.505-.115.556.556,0,0,1,.4.194.9.9,0,0,1,.165.607,1.317,1.317,0,0,1-.066.413c-.044.136-.094.267-.149.4a5.134,5.134,0,0,1-.43.774c-.165.247-.331.482-.5.7a.971.971,0,0,0,.753-.088,3.8,3.8,0,0,0,.62-.439.526.526,0,0,1,.372-.133.423.423,0,0,1,.339.2.481.481,0,0,1,.075.44.81.81,0,0,1-.24.352,2.628,2.628,0,0,1-.761.536,2.111,2.111,0,0,1-.91.2,1.8,1.8,0,0,1-.91-.247q-.414.457-.86.88a7.391,7.391,0,0,1-.943.757,4.048,4.048,0,0,1-.695.369,2.187,2.187,0,0,1-.745.176,1.243,1.243,0,0,1-.661-.141A.987.987,0,0,1,130.792,130.524Z" fill="#231f20"/>
      <path id="Path_2164" data-name="Path 2164" d="M136.814,130.576a1.653,1.653,0,0,1-.3-1.011,3.187,3.187,0,0,1,.215-1.065,5.046,5.046,0,0,1,.48-.888,6.2,6.2,0,0,1,.62-.774,6.386,6.386,0,0,1,.72-.66c.254-.2.507-.381.761-.546a4.242,4.242,0,0,1,.678-.334,3.288,3.288,0,0,1,.811-.211,1.851,1.851,0,0,1,.77.053.924.924,0,0,1,.554.457.839.839,0,0,1,.083.669,3.136,3.136,0,0,1-.265.651,4.4,4.4,0,0,1-.927,1.1,4.505,4.505,0,0,1-1.191.747,3.618,3.618,0,0,1-.976.247,1.928,1.928,0,0,1-.96-.141,2.469,2.469,0,0,0-.157.378.907.907,0,0,0-.041.361.686.686,0,0,0,.116.325.661.661,0,0,0,.331.238,1.315,1.315,0,0,0,.959-.053,5.321,5.321,0,0,0,1.084-.58,9.382,9.382,0,0,0,.992-.784q.456-.413.7-.659c.077-.082.157-.173.239-.273a.807.807,0,0,1,.273-.22.476.476,0,0,1,.282-.018.491.491,0,0,1,.231.141.617.617,0,0,1,.141.238.372.372,0,0,1-.008.255.811.811,0,0,1-.191.308c-.093.1-.179.19-.256.272q-.628.635-.968.924t-.62.5a6.411,6.411,0,0,1-.985.607,4.4,4.4,0,0,1-1.158.4,2.7,2.7,0,0,1-1.133-.009A1.491,1.491,0,0,1,136.814,130.576Zm2.134-2.6a2.566,2.566,0,0,0,1.125-.492,4.7,4.7,0,0,0,.861-.827,1.027,1.027,0,0,0,.19-.335c.038-.117.03-.193-.025-.228a3.344,3.344,0,0,0-.811.352,6.387,6.387,0,0,0-.728.51,5.963,5.963,0,0,0-1.042,1.02A1.291,1.291,0,0,0,138.948,127.972Z" fill="#231f20"/>
      <path id="Path_2165" data-name="Path 2165" d="M150.43,128.008c.066-.082.135-.162.207-.238a.637.637,0,0,1,.256-.167.432.432,0,0,1,.463.1.482.482,0,0,1,.149.466.652.652,0,0,1-.132.281c-.066.083-.133.159-.2.229a13.289,13.289,0,0,1-1.5,1.461,6.426,6.426,0,0,1-1.175.774,2.4,2.4,0,0,1-.893.264,2.181,2.181,0,0,1-.646-.053,1.235,1.235,0,0,1-.719-.51,1.8,1.8,0,0,1-.273-.88,12.207,12.207,0,0,1-1.15.792,6.926,6.926,0,0,1-.893.457,2.212,2.212,0,0,1-.687.176,1.737,1.737,0,0,1-.513-.035,1.265,1.265,0,0,1-.587-.343,1.4,1.4,0,0,1-.323-.581,2.188,2.188,0,0,1-.074-.748,3.708,3.708,0,0,1,.157-.844,10.927,10.927,0,0,1,.62-1.531q.389-.792.852-1.548t.96-1.434q.5-.678.943-1.206.48-.562.927-1.011a5.267,5.267,0,0,1,1.075-.819,4.383,4.383,0,0,1,.521-.246,2.341,2.341,0,0,1,.612-.158,1.288,1.288,0,0,1,.579.061.871.871,0,0,1,.455.414,1.022,1.022,0,0,1,.157.677,2.29,2.29,0,0,1-.2.7,4.181,4.181,0,0,1-.372.651c-.144.206-.271.384-.381.537a12.8,12.8,0,0,1-.918,1.064q-.439.448-1,.959-.364.316-.77.634t-.81.615q-.406.3-.811.555a7.951,7.951,0,0,1-.769.431,3.844,3.844,0,0,0-.232.343c-.066.111-.127.22-.182.326a1.844,1.844,0,0,0-.248,1c.033.27.121.435.265.493a.6.6,0,0,0,.471-.079,6.253,6.253,0,0,0,.745-.422q.422-.273.91-.66t.984-.792a11.15,11.15,0,0,1,.621-1.372q.389-.739.86-1.487t1.009-1.478q.537-.73,1.092-1.373a12.735,12.735,0,0,1,1.1-1.134A6.831,6.831,0,0,1,152,120.53a4.375,4.375,0,0,1,.521-.247,2.341,2.341,0,0,1,.612-.158,1.288,1.288,0,0,1,.579.061.875.875,0,0,1,.455.414,1.072,1.072,0,0,1,.166.678,2.172,2.172,0,0,1-.191.7,3.731,3.731,0,0,1-.381.651c-.148.206-.278.385-.388.537A14.884,14.884,0,0,1,152.1,124.6q-.795.8-1.671,1.575t-1.7,1.434q-.828.66-1.34,1.012a1.826,1.826,0,0,0-.248,1c.032.27.121.435.264.493a.639.639,0,0,0,.472-.053,3.77,3.77,0,0,0,.7-.4,8.743,8.743,0,0,0,.869-.695Q149.917,128.553,150.43,128.008Zm-4.98-2.517q.678-.562,1.224-1.082a12.171,12.171,0,0,0,1.109-1.222c.154-.2.3-.4.438-.59a2.784,2.784,0,0,0,.339-.642c.033-.094.025-.144-.025-.15a.429.429,0,0,0-.2.044,2.572,2.572,0,0,0-.273.141,1.849,1.849,0,0,0-.232.158,10.391,10.391,0,0,0-1.116,1.012,11.34,11.34,0,0,0-.952,1.17c-.22.305-.436.61-.645.915s-.408.622-.6.95c.155-.117.309-.231.464-.343S145.295,125.621,145.45,125.491Zm7.064-2.832c.155-.2.3-.4.439-.59a2.765,2.765,0,0,0,.339-.642c.033-.094.025-.143-.025-.149a.4.4,0,0,0-.2.044,2.227,2.227,0,0,0-.273.14,1.677,1.677,0,0,0-.232.159,10.331,10.331,0,0,0-1.191,1.09q-.579.617-1.108,1.294t-.993,1.381q-.464.7-.828,1.355.414-.387.943-.871t1.084-1.021q.555-.536,1.084-1.1T152.514,122.659Z" fill="#231f20"/>
      <path id="Path_2166" data-name="Path 2166" d="M150.347,130.576a1.659,1.659,0,0,1-.3-1.011,3.164,3.164,0,0,1,.216-1.065,4.978,4.978,0,0,1,.479-.888,6.3,6.3,0,0,1,.621-.774,6.462,6.462,0,0,1,.719-.66c.254-.2.507-.381.761-.546a4.256,4.256,0,0,1,.679-.334,3.277,3.277,0,0,1,.811-.211,1.848,1.848,0,0,1,.769.053.924.924,0,0,1,.554.457.839.839,0,0,1,.083.669,3.083,3.083,0,0,1-.265.651,4.422,4.422,0,0,1-.926,1.1,4.511,4.511,0,0,1-1.192.747,3.619,3.619,0,0,1-.976.247,1.922,1.922,0,0,1-.959-.141,2.381,2.381,0,0,0-.158.378.925.925,0,0,0-.041.361.7.7,0,0,0,.116.325.661.661,0,0,0,.331.238,1.315,1.315,0,0,0,.959-.053,5.321,5.321,0,0,0,1.084-.58,9.5,9.5,0,0,0,.993-.784q.454-.413.7-.659.115-.123.24-.273a.788.788,0,0,1,.273-.22.472.472,0,0,1,.281-.018.5.5,0,0,1,.232.141.6.6,0,0,1,.14.238.366.366,0,0,1-.008.255.82.82,0,0,1-.19.308l-.257.272q-.629.635-.968.924t-.62.5a6.411,6.411,0,0,1-.985.607,4.4,4.4,0,0,1-1.158.4,2.7,2.7,0,0,1-1.133-.009A1.491,1.491,0,0,1,150.347,130.576Zm2.134-2.6a2.575,2.575,0,0,0,1.126-.492,4.722,4.722,0,0,0,.86-.827,1.027,1.027,0,0,0,.19-.335c.039-.117.03-.193-.025-.228a3.32,3.32,0,0,0-.81.352,6.3,6.3,0,0,0-.728.51,5.936,5.936,0,0,0-1.043,1.02A1.291,1.291,0,0,0,152.481,127.972Z" fill="#231f20"/>
      <path id="Path_2167" data-name="Path 2167" d="M155.741,127.726q.5-.51.934-1.038t.869-1.073a.5.5,0,0,1,.091-.132.5.5,0,0,0,.091-.132,1.271,1.271,0,0,1-.008-.387,1.409,1.409,0,0,1,.1-.387.741.741,0,0,1,.215-.291.614.614,0,0,1,.339-.132.542.542,0,0,1,.431.159.723.723,0,0,1,.215.439.9.9,0,0,1-.034.343,1.8,1.8,0,0,1-.132.326l.182.088a1.2,1.2,0,0,0,.488.132.973.973,0,0,1,.472.15.857.857,0,0,1,.322.387.386.386,0,0,1-.058.439q-.512.617-.934,1.171t-.8,1.117c-.044.07-.11.191-.2.361a4.746,4.746,0,0,0-.224.492.769.769,0,0,0-.066.379q.025.141.273,0a3.949,3.949,0,0,0,.96-.792q.462-.51,1.191-1.285c.066-.081.138-.167.215-.255a.886.886,0,0,1,.248-.2.452.452,0,0,1,.488.079.484.484,0,0,1,.174.484.562.562,0,0,1-.141.29c-.072.077-.14.156-.206.238q-.3.316-.513.554c-.144.158-.271.294-.381.4s-.207.211-.289.3l-.24.255c-.122.117-.248.238-.381.361a4.125,4.125,0,0,1-.422.343,2.2,2.2,0,0,1-.471.255,1.416,1.416,0,0,1-.513.1,1.132,1.132,0,0,1-.6-.15,1.036,1.036,0,0,1-.38-.387,1.334,1.334,0,0,1-.158-.554,1.892,1.892,0,0,1,.059-.633,3.873,3.873,0,0,1,.554-1.267q.388-.582.8-1.126c.077-.106.152-.212.223-.317a3.943,3.943,0,0,1,.24-.317,1.966,1.966,0,0,1-.24-.106,1.093,1.093,0,0,1-.223-.14c-.077.105-.16.214-.248.325s-.19.238-.306.378-.254.306-.414.493-.356.411-.587.669c-.066.07-.132.147-.2.229a.745.745,0,0,1-.231.193.393.393,0,0,1-.348.044.552.552,0,0,1-.364-.528A.526.526,0,0,1,155.741,127.726Z" fill="#231f20"/>
      <path id="Path_2168" data-name="Path 2168" d="M166.809,125.949a.275.275,0,0,1-.033.132.7.7,0,0,1-.124.15c-.061.058-.135.138-.224.237l-.331.378q-.794.9-1.422,1.742t-1.208,1.672q-.91,1.32-1.688,2.5a25.193,25.193,0,0,0-1.406,2.411c-.055.094-.108.19-.157.29s-.1.2-.141.29-.082.159-.116.229a.324.324,0,0,1-.165.159.665.665,0,0,1-.463.008.674.674,0,0,1-.364-.29.463.463,0,0,1-.017-.492c.044-.1.086-.185.124-.273a2.746,2.746,0,0,1,.141-.273q.148-.3.306-.607t.322-.607q.7-1.231,1.506-2.463a2.585,2.585,0,0,1-.256.087.922.922,0,0,1-.257.036,1.468,1.468,0,0,1-.6-.123.874.874,0,0,1-.431-.4,1.259,1.259,0,0,1-.14-.73,2.726,2.726,0,0,1,.173-.713,5.032,5.032,0,0,1,.5-.976,12.259,12.259,0,0,1,.728-1.021q.4-.5.8-.959c.271-.305.51-.569.72-.792q.116-.1.24-.237a.457.457,0,0,1,.289-.15.552.552,0,0,1,.455.22.74.74,0,0,1,.174.466.513.513,0,0,1-.132.4q-.513.581-.852.976l-.571.669c-.155.182-.284.341-.389.475s-.2.262-.29.378c-.055.071-.135.183-.239.335a4.626,4.626,0,0,0-.282.466,2.968,2.968,0,0,0-.19.44c-.044.135-.033.214.033.238a.169.169,0,0,0,.157-.009,1.2,1.2,0,0,0,.224-.123l.24-.168c.082-.058.151-.111.207-.158a11.014,11.014,0,0,0,1.149-1.029q.538-.555,1.034-1.126t.976-1.153q.48-.581,1.01-1.108a.692.692,0,0,1,.182-.141.311.311,0,0,1,.231-.018.764.764,0,0,1,.563.757Z" fill="#231f20"/>
    </g>
  </g>
</svg>
