<svg xmlns="http://www.w3.org/2000/svg" xmlns:xlink="http://www.w3.org/1999/xlink" width="28.895" height="27.397" viewBox="0 0 28.895 27.397">
  <defs>
    <clipPath id="clip-path"/>
  </defs>
  <g id="phone-2" transform="translate(-1703.154 -260.007)" clip-path="url(#clip-path)">
    <g id="Group_1762" data-name="Group 1762" transform="translate(1703.154 260.007)">
      <path id="Path_4866" data-name="Path 4866" d="M4042.474,5346.247h-6.568a1.767,1.767,0,0,1-1.609-1.888v-.28a5.621,5.621,0,0,1,.5-2.793,30.127,30.127,0,0,0-9.838,0,5.718,5.718,0,0,1,.5,2.786v.28a1.767,1.767,0,0,1-1.609,1.887h-7.162c-.961,0-1.561-.874-1.642-2.4-.15-2.8,1.463-7.354,3.731-7.7l.049.454-.049-.454a68.538,68.538,0,0,1,21.28,0c2.653.443,4.036,4.792,3.859,7.712C4043.778,5346.009,4042.863,5346.247,4042.474,5346.247ZM4030,5339.971a28.885,28.885,0,0,1,5.549.528.412.412,0,0,1,.3.3.518.518,0,0,1-.072.456,4.159,4.159,0,0,0-.706,2.816v.291a.911.911,0,0,0,.829.971h6.568c.415,0,.61-.784.656-1.519.148-2.446-1.049-6.384-3.191-6.742a67.894,67.894,0,0,0-21.072,0c-1.678.248-3.187,4.12-3.048,6.723.038.7.217,1.537.861,1.537h7.162a.911.911,0,0,0,.829-.971v-.291a4.161,4.161,0,0,0-.7-2.818.519.519,0,0,1-.072-.458.41.41,0,0,1,.309-.295,32.974,32.974,0,0,1,5.8-.535Z" transform="translate(-4015.034 -5335.316)" fill="#231f20"/>
      <path id="Path_4867" data-name="Path 4867" d="M4054.555,5446.228h-26.508a.37.37,0,0,1-.269-.1.38.38,0,0,1-.119-.265v-.22a10.064,10.064,0,0,1,4.581-8.257,1.6,1.6,0,0,0,.722-1.31v-.784a2.082,2.082,0,0,1,2.167-1.972h2.478v-3.528a.377.377,0,0,1,.386-.367h1.566a.372.372,0,0,1,.269.1.38.38,0,0,1,.119.265v3.528h3.377v-3.528a.381.381,0,0,1,.118-.265.375.375,0,0,1,.268-.1h1.566a.372.372,0,0,1,.269.1.383.383,0,0,1,.119.265v3.528h1.806a2.082,2.082,0,0,1,2.167,1.972v.784a1.6,1.6,0,0,0,.722,1.31,10.065,10.065,0,0,1,4.582,8.257v.22A.376.376,0,0,1,4054.555,5446.228Zm-26.12-.733h25.724a9.361,9.361,0,0,0-4.256-7.512,2.318,2.318,0,0,1-1.053-1.9v-.785a1.329,1.329,0,0,0-1.4-1.24h-2.187a.368.368,0,0,1-.269-.1.378.378,0,0,1-.119-.265v-3.529h-.791v3.527a.376.376,0,0,1-.386.366h-4.128a.376.376,0,0,1-.386-.366v-3.527h-.791v3.527a.382.382,0,0,1-.119.265.37.37,0,0,1-.269.1h-2.866a1.329,1.329,0,0,0-1.4,1.241v.784a2.32,2.32,0,0,1-1.053,1.9,9.372,9.372,0,0,0-4.249,7.515Z" transform="translate(-4026.858 -5423.343)" fill="#231f20"/>
      <path id="Path_4868" data-name="Path 4868" d="M4179.329,5542.6a6.762,6.762,0,1,1,6.664-6.762,6.713,6.713,0,0,1-6.664,6.762Zm0-12.607a5.846,5.846,0,1,0,5.761,5.845A5.8,5.8,0,0,0,4179.329,5529.994Z" transform="translate(-4164.887 -5519.495)" fill="#231f20"/>
      <path id="Path_4869" data-name="Path 4869" d="M4249.767,5608.107a1.9,1.9,0,1,1,1.874-1.9,1.889,1.889,0,0,1-1.874,1.9Zm0-2.89a.986.986,0,1,0,.973.986.994.994,0,0,0-.284-.7.962.962,0,0,0-.689-.291Z" transform="translate(-4235.324 -5589.579)" fill="#231f20"/>
      <g id="Group_1759" data-name="Group 1759" transform="translate(12.939 10.91)">
        <path id="Path_4870" data-name="Path 4870" d="M4255.241,5551.156a1.525,1.525,0,1,1,1.5-1.524A1.514,1.514,0,0,1,4255.241,5551.156Zm0-2.134a.605.605,0,1,1,0,.009Z" transform="translate(-4253.739 -5548.107)" fill="#231f20"/>
        <path id="Path_4871" data-name="Path 4871" d="M4255.241,5673.665a1.525,1.525,0,1,1,1.5-1.525A1.514,1.514,0,0,1,4255.241,5673.665Zm0-2.133a.6.6,0,1,1,0,.007Z" transform="translate(-4253.739 -5662.7)" fill="#231f20"/>
      </g>
      <g id="Group_1760" data-name="Group 1760" transform="translate(9.562 13.008)">
        <path id="Path_4872" data-name="Path 4872" d="M4202.2,5581.805a1.507,1.507,0,0,1-1.449-1.132,1.534,1.534,0,0,1,.7-1.713,1.487,1.487,0,0,1,1.813.244,1.541,1.541,0,0,1,.238,1.84,1.489,1.489,0,0,1-1.3.762Zm0-2.133a.6.6,0,0,0-.589.5.609.609,0,0,0,.383.677.6.6,0,0,0,.725-.263.617.617,0,0,0,0-.61.6.6,0,0,0-.521-.306Z" transform="translate(-4200.697 -5578.756)" fill="#231f20"/>
        <path id="Path_4873" data-name="Path 4873" d="M4308.269,5643.06a1.505,1.505,0,0,1-1.409-1,1.539,1.539,0,0,1,.446-1.687,1.485,1.485,0,0,1,1.716-.153h0a1.532,1.532,0,0,1-.361,2.794A1.494,1.494,0,0,1,4308.269,5643.06Zm0-2.135a.589.589,0,0,0-.157.02.612.612,0,0,0,.077,1.194.6.6,0,0,0,.648-.409.615.615,0,0,0-.27-.725h0a.592.592,0,0,0-.3-.09Z" transform="translate(-4300.017 -5636.045)" fill="#231f20"/>
      </g>
      <g id="Group_1761" data-name="Group 1761" transform="translate(9.559 13.012)">
        <path id="Path_4874" data-name="Path 4874" d="M4202.2,5643.06a1.506,1.506,0,0,1-1.456-1.128,1.532,1.532,0,0,1,.7-1.717h0a1.484,1.484,0,0,1,1.715.153,1.54,1.54,0,0,1,.447,1.688,1.506,1.506,0,0,1-1.409,1Zm-.3-2.052a.614.614,0,0,0-.219.833.6.6,0,0,0,.821.223.615.615,0,0,0,.219-.833A.6.6,0,0,0,4201.895,5641.008Z" transform="translate(-4200.69 -5636.049)" fill="#231f20"/>
        <path id="Path_4875" data-name="Path 4875" d="M4308.259,5581.8a1.529,1.529,0,0,1-.753-2.848h0a1.484,1.484,0,0,1,1.715.153,1.538,1.538,0,0,1,.447,1.688,1.5,1.5,0,0,1-1.409,1Zm0-2.135a.591.591,0,0,0-.3.083h0a.613.613,0,0,0-.22.832.6.6,0,0,0,.819.224.611.611,0,0,0-.144-1.116.65.65,0,0,0-.155-.032Zm-.526-.316Z" transform="translate(-4300.004 -5578.751)" fill="#231f20"/>
      </g>
      <path id="Path_4876" data-name="Path 4876" d="M4054.553,5769.51h-26.508a.427.427,0,0,1-.388-.458v-2.931a.428.428,0,0,1,.388-.458h26.51a.427.427,0,0,1,.386.458v2.932a.426.426,0,0,1-.388.458Zm-26.122-.917h25.726v-2.024h-25.733Z" transform="translate(-4026.856 -5742.113)" fill="#231f20"/>
    </g>
  </g>
</svg>
