<svg id="Layer_1" data-name="Layer 1" xmlns="http://www.w3.org/2000/svg" viewBox="0 0 153 178.82"><title>phone</title><path d="M19.13,161.08c-.72-9.26.15-18.26,4-26.62,5.59-12,11.37-24,17.73-35.61,4.23-7.73,6.76-15.51,5.73-24.33a41,41,0,0,1,0-4.72H63.86V81.62H86.94V69.9h17.55c0,4.06-.29,8.15.09,12.17a27.75,27.75,0,0,0,2.24,9.51q9.89,20.08,20.34,39.88c4.9,9.3,5.36,19.21,4.94,29.62Zm43.85-56V97.93H54.24v7.18Zm24-7.29V105h8.66V97.82ZM63,118.87v-7H54.27v7Zm32.69-7H87v6.86h8.71Zm-41.53,20.9H63v-7H54.19Zm16.51.08h8.72v-7.07H70.7Zm25.07-7h-8.9v6.87h8.9Zm-25-28.12V105H79.3V97.75Zm8.59,14.12h-8.6v6.94h8.6Z"/><path d="M149.21,76.61c-9.43,2.87-18,3.17-26.49.13a64.4,64.4,0,0,1-9.13-3.86A5.5,5.5,0,0,1,111,69.25c-.41-3.93-2.21-7-5.66-8.38a62.49,62.49,0,0,0-14.49-4.25,100.73,100.73,0,0,0-36.95,1.21,42.62,42.62,0,0,0-9.45,3.84c-3,1.53-4.07,4.46-4.55,7.68a4.86,4.86,0,0,1-1.42,3.08c-9.87,6.77-20.51,9.62-32.36,6-2.68-.81-3.94-2-3-5,2.27-7.26,4.09-14.66,6.63-21.81a10.08,10.08,0,0,1,5.07-5.1C30.91,39.44,47.78,35.9,65.28,34.9c24.1-1.38,47.41,1.81,69.87,10.85,3.43,1.38,5.81,3.35,6.86,7C144.33,60.59,146.76,68.46,149.21,76.61Z"/><path d="M39.74,78.27c2.29,10.31-2.74,23.45-20.1,24a39.53,39.53,0,0,1-9.17-1.06c-4.41-.93-6.59-3.52-7.12-8-.44-3.73-.75-7.46-1.07-10.74,6.39.6,12.87,2.22,19.09,1.52S33.66,80.26,39.74,78.27Z"/><path d="M111.17,76.43c12,7,24,8.81,37.85,4.5-.72,5.09-.94,9.66-2.09,14-1.25,4.71-5.67,5.81-9.78,5.87a55.21,55.21,0,0,1-14.06-1.38c-7.07-1.77-11.37-7.66-11.9-15.06C111,81.93,111.17,79.5,111.17,76.43Z"/></svg>